<svg xmlns="http://www.w3.org/2000/svg" width="72" height="100" fill="none"><g clip-path="url(#a)"><path fill="url(#b)" d="M68.736.921H2.74C1.383.921.286 1.993.286 3.32v94.259c0 1.326 1.097 2.398 2.454 2.398h65.996c1.357 0 2.454-1.072 2.454-2.398V3.319C71.182 1.993 70.085.921 68.736.921Z"/><path fill="#fff" d="M64.404 5.193H7.064c-1.317 0-2.39 1.049-2.39 2.343v77.932c0 1.294 1.073 2.334 2.39 2.334h57.34c1.325 0 2.39-1.048 2.39-2.334V7.536c0-1.294-1.065-2.343-2.39-2.343Z"/><path fill="url(#c)" d="M47.458 42.245h-23.44c-1.073 0-1.942-.85-1.942-1.897v-22.91c0-1.048.87-1.898 1.942-1.898h23.44c1.073 0 1.943.85 1.943 1.898V40.34c0 1.048-.87 1.905-1.943 1.905Z"/><path fill="#fff" d="M35.738 97.41c1.993 0 3.609-1.578 3.609-3.525 0-1.947-1.616-3.526-3.609-3.526-1.993 0-3.609 1.579-3.609 3.526 0 1.947 1.616 3.526 3.61 3.526Z"/><path fill="url(#d)" d="M56.163 54.11H15.305c-1.032 0-1.877-.827-1.877-1.835 0-1.009.845-1.834 1.877-1.834h40.85c1.032 0 1.877.825 1.877 1.834 0 1.008-.837 1.834-1.87 1.834Z"/><path fill="url(#e)" d="M49.246 64.274H14.623c-.659 0-1.187-.525-1.187-1.16v-.127c0-.643.537-1.16 1.187-1.16h34.623c.658 0 1.187.525 1.187 1.16v.127c.008.636-.529 1.16-1.187 1.16Z" opacity=".6"/><path fill="url(#f)" d="M42.655 70.73H14.509c-.593 0-1.081-.477-1.081-1.057v-.349c0-.58.488-1.056 1.08-1.056h28.139c.593 0 1.08.476 1.08 1.056v.35c0 .579-.487 1.055-1.072 1.055Z" opacity=".3"/><path fill="url(#g)" d="M46.198 76.709H14.574c-.626 0-1.138-.5-1.138-1.112v-.222c0-.612.512-1.112 1.138-1.112h31.624c.626 0 1.138.5 1.138 1.112v.222c0 .604-.512 1.112-1.138 1.112Z" opacity=".6"/><path fill="#fff" d="M35.809 28.155c2.346 0 4.249-1.884 4.249-4.208 0-2.323-1.903-4.207-4.25-4.207-2.346 0-4.249 1.884-4.249 4.207 0 2.324 1.894 4.208 4.25 4.208Zm0 2.103c-2.836 0-8.5 1.409-8.5 4.207v1.057c0 .58.48 1.056 1.068 1.056h14.881c.587 0 1.067-.475 1.067-1.056v-1.056c-.018-2.79-5.68-4.208-8.517-4.208Z"/></g><defs><linearGradient id="b" x1="4.581" x2="71.228" y1="47.869" y2="53.643" gradientUnits="userSpaceOnUse"><stop stop-color="#6CBCFC"/><stop offset="1" stop-color="#458DFC"/></linearGradient><linearGradient id="c" x1="19.957" x2="51.208" y1="21.035" y2="37.333" gradientUnits="userSpaceOnUse"><stop stop-color="#B0F4FF"/><stop offset=".086" stop-color="#A3F0FE"/><stop offset=".297" stop-color="#8AE7FD"/><stop offset=".516" stop-color="#77E1FD"/><stop offset=".745" stop-color="#6DDDFC"/><stop offset="1" stop-color="#69DCFC"/></linearGradient><linearGradient id="d" x1="58.036" x2="13.436" y1="52.276" y2="52.276" gradientUnits="userSpaceOnUse"><stop stop-color="#6CBCFC"/><stop offset="1" stop-color="#458DFC"/></linearGradient><linearGradient id="e" x1="50.438" x2="13.436" y1="63.047" y2="63.047" gradientUnits="userSpaceOnUse"><stop stop-color="#6CBCFC"/><stop offset="1" stop-color="#458DFC"/></linearGradient><linearGradient id="f" x1="43.728" x2="13.436" y1="69.503" y2="69.503" gradientUnits="userSpaceOnUse"><stop stop-color="#6CBCFC"/><stop offset="1" stop-color="#458DFC"/></linearGradient><linearGradient id="g" x1="47.335" x2="13.436" y1="75.48" y2="75.48" gradientUnits="userSpaceOnUse"><stop stop-color="#6CBCFC"/><stop offset="1" stop-color="#458DFC"/></linearGradient><clipPath id="a"><path fill="#fff" d="M.286.921h70.897v99.047H.286z"/></clipPath></defs></svg>