<svg xmlns="http://www.w3.org/2000/svg" width="85" height="76" fill="none"><g clip-path="url(#a)"><path fill="url(#b)" d="M70.751 14.913H14.683V75.09h56.068V14.913Z"/><path fill="url(#c)" d="M14.45 14.913c.069 0 .136.03.233.058v60.09c-4.34.338-8.004-.755-10.914-3.558-2.059-1.991-3.055-4.33-3.055-6.98v-28.12c0-3.577-.01-7.154-.01-10.73 0-4.322 2.33-7.463 6.613-9.59 2.204-1.083 4.65-1.247 7.134-1.17Z"/><path fill="#fff" d="M60.958 14.903h5.25V75.07H19.225V14.923h5.578v-.629c0-2.155.01-4.32-.01-6.476-.019-1.508.387-2.823 1.567-3.848.83-.715 1.788-1.083 2.87-1.083 3.355-.01 6.7-.01 10.054-.01 5.636 0 11.282.01 16.917 0 1.48 0 2.707.484 3.674 1.606.773.899 1.063 1.952 1.063 3.132-.01 2.271 0 4.543 0 6.815-.01.125 0 .27.02.473Zm-30.102 0h8.594c4.988 0 9.985 0 14.974.01.396 0 .483-.126.483-.503-.02-1.691 0-3.383 0-5.075 0-.135-.02-.27-.039-.415H30.856v5.983Z"/><mask id="d" width="48" height="74" x="19" y="2" maskUnits="userSpaceOnUse" style="mask-type:alpha"><path fill="#F7F9FC" d="M60.958 14.903h5.25V75.07H19.225V14.923h5.578v-.629c0-2.155.01-4.32-.01-6.476-.019-1.508.387-2.823 1.566-3.848.832-.715 1.789-1.083 2.872-1.083 3.354-.01 6.699-.01 10.053-.01 5.636 0 11.282.01 16.917 0 1.48 0 2.707.484 3.674 1.606.773.899 1.063 1.952 1.063 3.132-.01 2.271 0 4.543 0 6.815-.01.125 0 .27.02.473Zm-30.102 0h8.594c4.988 0 9.985 0 14.974.01.396 0 .483-.126.483-.503-.02-1.691 0-3.383 0-5.075 0-.135-.02-.27-.039-.415H30.856v5.983Z"/></mask><g mask="url(#d)"><path fill="url(#e)" d="M61.923.152H22.839v14.77h39.084V.153Z"/></g><path fill="url(#f)" d="M85 25.518c0-3.983-2.175-6.95-6.042-9.107-2.378-1.324-5.075-1.575-7.84-1.517-.425.01-.367.232-.367.464v20.87c0 12.23 0 24.448-.01 36.677v2.175c1.74.058 3.393.067 5.017-.32 5.491-1.294 9.232-5.384 9.232-10.207.02-13.002.01-26.024.01-39.035Z"/><path fill="url(#g)" d="M47.3 49.443V57.08c0 .803-.407 1.228-1.2 1.228-2.184.01-4.37.01-6.554 0-.725 0-1.13-.455-1.13-1.218v-7.647h-7.551c-.937 0-1.324-.377-1.324-1.314v-6.236c0-.947.377-1.324 1.315-1.324h7.55v-7.598c0-.89.396-1.276 1.285-1.276h6.235c.977 0 1.354.367 1.354 1.363.01 2.378 0 4.746 0 7.124v.397h.415c2.398 0 4.795 0 7.193.01.88 0 1.256.386 1.256 1.266v6.264c0 .957-.367 1.324-1.305 1.324-2.387 0-4.775 0-7.153.01-.097-.01-.213-.01-.387-.01Z"/></g><defs><linearGradient id="b" x1="14.684" x2="70.748" y1="44.998" y2="44.998" gradientUnits="userSpaceOnUse"><stop stop-color="#B0F4FF"/><stop offset="1" stop-color="#69DCFC"/></linearGradient><linearGradient id="c" x1=".714" x2="14.684" y1="45.007" y2="45.007" gradientUnits="userSpaceOnUse"><stop stop-color="#6CBCFC"/><stop offset="1" stop-color="#458DFC"/></linearGradient><linearGradient id="e" x1="22.835" x2="61.921" y1="7.536" y2="7.536" gradientUnits="userSpaceOnUse"><stop stop-color="#6CBCFC"/><stop offset="1" stop-color="#458DFC"/></linearGradient><linearGradient id="f" x1="70.744" x2="85.001" y1="45.001" y2="45.001" gradientUnits="userSpaceOnUse"><stop stop-color="#6CBCFC"/><stop offset="1" stop-color="#458DFC"/></linearGradient><linearGradient id="g" x1="29.547" x2="56.164" y1="45.011" y2="45.011" gradientUnits="userSpaceOnUse"><stop stop-color="#6CBCFC"/><stop offset="1" stop-color="#458DFC"/></linearGradient><clipPath id="a"><path fill="#fff" d="M.714.152H85v74.967H.714z"/></clipPath></defs></svg>