<svg xmlns="http://www.w3.org/2000/svg" width="68" height="92" fill="none"><path fill="url(#a)" d="m67.33 28.98-.207 42.723-.035 8.264c-.035 6.566-6.347 11.864-14.115 11.83l-38.808-.172C6.414 91.574.137 86.225.17 79.641l.243-50.988c.017-5.314 4.179-9.806 9.867-11.298l.017-2.743v-1.406l47.287.223-.017 4.15c5.67 1.56 9.78 6.068 9.763 11.4Z"/><path fill="url(#b)" d="M61.105 2.457v.377l-.034 4.457-.035 4.372v.532c0 .823-.694 1.491-1.526 1.491h-.364l-2.289-.017-2.514-.017-2.29-.017-2.514-.017-2.323-.034-2.515-.018-2.288-.017-2.532-.017-2.306-.017-2.515-.017-2.289-.034-2.514-.018-2.29-.017-2.53-.017-2.307-.017-2.497-.017-2.289-.017-2.514-.018-2.307-.017-2.514-.017-2.306-.017h-.364a1.516 1.516 0 0 1-1.509-1.509v-.394l.07-8.812v-.532c0-.823.693-1.491 1.543-1.491h.364l4.82.034 4.821.034 2.306.017 2.515.018 2.289.017 4.803.051 2.514.017 2.29.017 2.514.018 2.288.017 2.515.017 2.289.017 2.514.017 2.29.017 2.548.035 2.29.017 2.513.017 2.307.017h.364c.85.017 1.508.686 1.508 1.509Z"/><path fill="url(#c)" d="m61.105 2.851-.034 4.44-.035 4.372-2.063-.017-2.74-.017-2.514-.017H50.96l-2.514-.017-2.74-.017-2.514-.018h-2.757l-2.515-.017-2.757-.017-2.497-.017H29.91l-2.514-.017-2.757-.017-2.515-.017h-2.74l-2.514-.018-2.757-.017-2.514-.017h-2.74L6.83 11.39l.07-8.812 4.82.017 5.254.034 2.514.017 2.758.018h2.514l5.254.034 2.757.017h2.515l2.757.017 2.497.017 2.757.017h2.514l2.757.018 2.497.017 2.758.017h2.514l2.757.017 2.011.017Z"/><path fill="#F7F9FC" d="M67.28 38 .363 37.687l-.14 29.334 66.916.313L67.28 38Z"/><path fill="#FBFCF7" d="M67.292 38 .375 37.687l-.025 5.28 66.916.313.026-5.28Z"/><path fill="url(#d)" d="m26.46 49.482-4.319-.017.018-4.287-5.948-.017-.017 4.27-4.318-.018-.035 5.864 4.318.017-.017 4.286 5.948.017.017-4.269 4.318.017.034-5.863Z"/><path fill="url(#e)" d="M55.8 50.905 34.4 50.802c-.572 0-1.04-.463-1.04-1.029v-.48c0-.566.468-1.029 1.04-1.029l21.398.103c.572 0 1.04.463 1.04 1.03v.48c0 .565-.468 1.028-1.04 1.028Z"/><path fill="url(#f)" d="m55.782 57.197-21.398-.103c-.572 0-1.04-.463-1.04-1.029v-.48c0-.566.468-1.029 1.04-1.029l21.398.103c.572 0 1.04.463 1.04 1.03v.48c0 .565-.468 1.028-1.04 1.028Z" opacity=".5"/><path fill="#1A6FB5" d="M6.83 2.457v.377l.035 4.457.034 4.355v.532c0 .823.694 1.491 1.526 1.491h.364l2.307-.017 2.514-.017 2.289-.017 2.514-.017 2.29-.018 2.514-.017 2.289-.017 2.514-.017 2.306-.017 2.515-.017 2.288-.017 2.515-.018 2.289-.017 2.514-.017 2.306-.017 2.515-.017 2.289-.017 2.514-.017 2.29-.018 2.513-.017 2.307-.017h.364c.832 0 1.508-.686 1.508-1.508v-.395C34.228 12.555 8.34.948 8.34.948c-.833.017-1.509.686-1.509 1.509Z" opacity=".08"/><defs><linearGradient id="a" x1=".171" x2="61.286" y1="12.719" y2="98.032" gradientUnits="userSpaceOnUse"><stop stop-color="#6CBCFC"/><stop offset="1" stop-color="#458DFC"/></linearGradient><linearGradient id="b" x1="-683.753" x2="-29.872" y1="-42.31" y2="3.754" gradientUnits="userSpaceOnUse"><stop stop-color="#B0F4FF"/><stop offset=".053" stop-color="#A9F2FF"/><stop offset=".288" stop-color="#8DE8FE"/><stop offset=".525" stop-color="#79E1FD"/><stop offset=".762" stop-color="#6DDDFC"/><stop offset="1" stop-color="#69DCFC"/></linearGradient><linearGradient id="c" x1="6.837" x2="61.108" y1="7.116" y2="7.116" gradientUnits="userSpaceOnUse"><stop stop-color="#B0F4FF"/><stop offset=".053" stop-color="#A9F2FF"/><stop offset=".288" stop-color="#8DE8FE"/><stop offset=".525" stop-color="#79E1FD"/><stop offset=".762" stop-color="#6DDDFC"/><stop offset="1" stop-color="#69DCFC"/></linearGradient><linearGradient id="d" x1="24.033" x2="13.98" y1="46.814" y2="58.539" gradientUnits="userSpaceOnUse"><stop stop-color="#6CBCFC"/><stop offset="1" stop-color="#458DFC"/></linearGradient><linearGradient id="e" x1="57.046" x2="31.534" y1="49.579" y2="49.579" gradientUnits="userSpaceOnUse"><stop stop-color="#6CBCFC"/><stop offset="1" stop-color="#458DFC"/></linearGradient><linearGradient id="f" x1="33.342" x2="56.823" y1="55.871" y2="55.871" gradientUnits="userSpaceOnUse"><stop stop-color="#6CBCFC"/><stop offset="1" stop-color="#458DFC"/></linearGradient></defs></svg>