<svg xmlns="http://www.w3.org/2000/svg" width="98" height="95" fill="none"><g clip-path="url(#a)"><path fill="url(#b)" d="m60.21 45.38-9.565 9.034-40.388 38.144a5.484 5.484 0 0 1-3.78 1.506 5.48 5.48 0 0 1-4.06-1.784c-2.131-2.328-1.853-5.969.6-7.955l47.628-38.412 5.248-4.228 4.316 3.694Z"/><path fill="#3A81D6" fill-opacity=".8" d="m50.227 54.873-9.414 8.885-.867-9.13 5.151-4.155 5.13 4.4Z"/><path fill="url(#c)" d="M97.888 31.401c0 17.225-14.01 31.193-31.274 31.193-10.882 0-20.467-5.543-26.069-13.957A30.973 30.973 0 0 1 35.34 31.4C35.34 14.176 49.35.22 66.614.22c7.797 0 14.92 2.84 20.392 7.54C93.668 13.482 97.888 21.95 97.888 31.4Z"/><path fill="#fff" d="M66.614 55.695c13.457 0 24.366-10.877 24.366-24.294S80.07 7.107 66.614 7.107c-13.457 0-24.366 10.877-24.366 24.294s10.91 24.294 24.366 24.294Z"/><path fill="#1A6FB5" fill-opacity=".5" d="M97.888 31.401c0 17.225-14.01 31.193-31.274 31.193-10.882 0-20.467-5.543-26.069-13.957C75.814 45.775 85.11 15.98 87.017 7.759c6.65 5.723 10.87 14.192 10.87 23.642Z" opacity=".06"/><path fill="url(#d)" d="M66.614 31.455c2.827 0 5.12-2.286 5.12-5.105 0-2.819-2.293-5.104-5.12-5.104-2.828 0-5.12 2.285-5.12 5.104a5.105 5.105 0 0 0 5.12 5.105Zm0 2.552c-3.417 0-10.239 1.708-10.239 5.104v1.282c0 .704.578 1.281 1.285 1.281H75.59c.707 0 1.285-.577 1.285-1.281V39.11c-.021-3.385-6.843-5.104-10.26-5.104Z"/></g><defs><linearGradient id="b" x1="6.961" x2="57.317" y1="88.138" y2="42.225" gradientUnits="userSpaceOnUse"><stop stop-color="#67C3F3"/><stop offset="1" stop-color="#5A98F2"/></linearGradient><linearGradient id="c" x1="53.679" x2="77.248" y1="2.423" y2="55.563" gradientUnits="userSpaceOnUse"><stop stop-color="#67C3F3"/><stop offset="1" stop-color="#5A98F2"/></linearGradient><linearGradient id="d" x1="59.212" x2="77.734" y1="29.824" y2="38.884" gradientUnits="userSpaceOnUse"><stop stop-color="#B0F4FF"/><stop offset=".071" stop-color="#A6F1FF"/><stop offset=".294" stop-color="#8BE8FD"/><stop offset=".521" stop-color="#78E1FD"/><stop offset=".754" stop-color="#6DDDFC"/><stop offset="1" stop-color="#69DCFC"/></linearGradient><clipPath id="a"><path fill="#fff" d="M.982.22h96.905v93.833H.982z"/></clipPath></defs></svg>