<svg xmlns="http://www.w3.org/2000/svg" width="76" height="104" fill="none"><g clip-path="url(#a)"><path fill="url(#b)" d="M75.63 5.605V98.59c0 2.566-2.091 4.639-4.68 4.639H4.937c-2.589-.017-4.68-2.09-4.68-4.64V5.606c0-2.566 2.091-4.64 4.68-4.64h66.03c2.572 0 4.663 2.074 4.663 4.64Z"/><path fill="url(#c)" d="M70.829 9.519v85.14c0 2.35-1.838 4.248-4.112 4.248H8.712C6.438 98.89 4.6 96.993 4.6 94.659V9.519c0-2.35 1.838-4.248 4.112-4.248h58.02c2.259 0 4.097 1.898 4.097 4.248Z"/><path fill="url(#d)" d="M29.432 20.61v4.23a.54.54 0 0 1-.548.545h-5.229a.54.54 0 0 0-.548.543v5.183a.54.54 0 0 1-.549.544H18.29a.54.54 0 0 1-.549-.544v-5.183a.54.54 0 0 0-.548-.543h-5.211a.54.54 0 0 1-.549-.544V20.61a.54.54 0 0 1 .549-.544h5.228a.54.54 0 0 0 .549-.544V14.34a.54.54 0 0 1 .548-.543h4.268a.54.54 0 0 1 .549.543v5.183c0 .306.24.544.549.544h5.21a.54.54 0 0 1 .55.544Z"/><path fill="url(#e)" d="M63.854 43.669h-51.82a.612.612 0 0 1-.618-.612v-1.954c0-.34.275-.612.618-.612h51.82c.342 0 .617.272.617.612v1.954c-.017.34-.275.612-.617.612Z" opacity=".5"/><path fill="url(#f)" d="M63.854 19.318H38.14a.612.612 0 0 1-.617-.612V16.77c0-.34.274-.611.617-.611h25.713c.342 0 .617.271.617.611v1.955a.62.62 0 0 1-.617.594Z"/><path fill="url(#g)" d="M56.243 27.577H38.14a.612.612 0 0 1-.617-.612v-1.954c0-.34.274-.612.617-.612h18.102c.342 0 .617.272.617.612v1.954c-.017.34-.275.612-.617.612Z" opacity=".5"/><path fill="url(#h)" d="M63.854 52.947h-51.82a.612.612 0 0 1-.618-.612v-1.954c0-.34.275-.612.618-.612h51.82c.342 0 .617.272.617.612v1.954c-.017.34-.275.612-.617.612Z" opacity=".5"/><path fill="url(#i)" d="M63.854 62.225h-51.82a.612.612 0 0 1-.618-.612V59.66c0-.34.275-.612.618-.612h51.82c.342 0 .617.272.617.612v1.971a.62.62 0 0 1-.617.595Z" opacity=".5"/><path fill="url(#j)" d="M63.854 71.52h-51.82a.612.612 0 0 1-.618-.612v-1.954c0-.34.275-.611.618-.611h51.82c.342 0 .617.271.617.611v1.954c-.017.34-.275.612-.617.612Z" opacity=".5"/><path fill="url(#k)" d="M63.854 80.798h-51.82a.612.612 0 0 1-.618-.612v-1.954c0-.34.275-.611.618-.611h51.82c.342 0 .617.271.617.611v1.954c-.017.34-.275.612-.617.612Z" opacity=".5"/><path fill="url(#l)" d="M63.854 90.076h-51.82a.612.612 0 0 1-.618-.611V87.51c0-.34.275-.611.618-.611h51.82c.342 0 .617.272.617.611v1.954c-.017.34-.275.612-.617.612Z" opacity=".5"/><path fill="#1A6FB5" fill-opacity=".4" d="M75.63 5.605V98.59c0 2.566-2.091 4.639-4.68 4.639H4.937c-2.589-.017-4.68-2.09-4.68-4.64v-1.614C40.524 80.492 59.277 17.28 63.511.965h7.44c2.588 0 4.68 2.074 4.68 4.64Z" opacity=".1"/></g><defs><linearGradient id="b" x1="103.4" x2="-5.055" y1="136.576" y2="-5.869" gradientUnits="userSpaceOnUse"><stop offset=".306" stop-color="#5BA7FC"/><stop offset="1" stop-color="#69B8FC"/></linearGradient><linearGradient id="c" x1="9.62" x2="62.533" y1="8.549" y2="85.382" gradientUnits="userSpaceOnUse"><stop offset=".306" stop-color="#fff"/><stop offset="1" stop-color="#fff"/></linearGradient><linearGradient id="d" x1="11.114" x2="27.193" y1="11.191" y2="37.684" gradientUnits="userSpaceOnUse"><stop stop-color="#B0F4FF"/><stop offset=".369" stop-color="#80E4FD"/><stop offset="1" stop-color="#6CDDFC"/></linearGradient><linearGradient id="e" x1="11.43" x2="64.461" y1="42.087" y2="42.087" gradientUnits="userSpaceOnUse"><stop stop-color="#6CBCFC"/><stop offset="1" stop-color="#458DFC"/></linearGradient><linearGradient id="f" x1="37.524" x2="64.461" y1="17.739" y2="17.739" gradientUnits="userSpaceOnUse"><stop stop-color="#6CBCFC"/><stop offset="1" stop-color="#458DFC"/></linearGradient><linearGradient id="g" x1="37.524" x2="56.851" y1="26.002" y2="26.002" gradientUnits="userSpaceOnUse"><stop stop-color="#6CBCFC"/><stop offset="1" stop-color="#458DFC"/></linearGradient><linearGradient id="h" x1="11.43" x2="64.461" y1="51.37" y2="51.37" gradientUnits="userSpaceOnUse"><stop stop-color="#6CBCFC"/><stop offset="1" stop-color="#458DFC"/></linearGradient><linearGradient id="i" x1="11.43" x2="64.461" y1="60.652" y2="60.652" gradientUnits="userSpaceOnUse"><stop stop-color="#6CBCFC"/><stop offset="1" stop-color="#458DFC"/></linearGradient><linearGradient id="j" x1="11.43" x2="64.461" y1="69.934" y2="69.934" gradientUnits="userSpaceOnUse"><stop stop-color="#6CBCFC"/><stop offset="1" stop-color="#458DFC"/></linearGradient><linearGradient id="k" x1="11.43" x2="64.461" y1="79.216" y2="79.216" gradientUnits="userSpaceOnUse"><stop stop-color="#6CBCFC"/><stop offset="1" stop-color="#458DFC"/></linearGradient><linearGradient id="l" x1="11.43" x2="64.461" y1="88.499" y2="88.499" gradientUnits="userSpaceOnUse"><stop stop-color="#6CBCFC"/><stop offset="1" stop-color="#458DFC"/></linearGradient><clipPath id="a"><path fill="#fff" d="M.257.966H75.63v102.246H.257z"/></clipPath></defs></svg>